<?xml version="1.0" encoding="UTF-8"?>
<svg width="16" height="16" viewBox="0 0 16 16" xmlns="http://www.w3.org/2000/svg">
  <style>
    .fill { fill: currentColor; }
  </style>
  <!-- Keyboard outline -->
  <rect class="fill" x="1" y="4" width="14" height="9" rx="1" fill-opacity="0.2"/>
  <rect class="fill" x="1" y="4" width="14" height="9" rx="1" fill="none" stroke="currentColor" stroke-width="1"/>

  <!-- Key rows -->
  <!-- Row 1 -->
  <rect class="fill" x="2.5" y="5.5" width="1.5" height="1.5" rx="0.3"/>
  <rect class="fill" x="4.5" y="5.5" width="1.5" height="1.5" rx="0.3"/>
  <rect class="fill" x="6.5" y="5.5" width="1.5" height="1.5" rx="0.3"/>
  <rect class="fill" x="8.5" y="5.5" width="1.5" height="1.5" rx="0.3"/>
  <rect class="fill" x="10.5" y="5.5" width="1.5" height="1.5" rx="0.3"/>
  <rect class="fill" x="12.5" y="5.5" width="1.5" height="1.5" rx="0.3"/>

  <!-- Row 2 -->
  <rect class="fill" x="2.5" y="7.5" width="1.5" height="1.5" rx="0.3"/>
  <rect class="fill" x="4.5" y="7.5" width="1.5" height="1.5" rx="0.3"/>
  <rect class="fill" x="6.5" y="7.5" width="1.5" height="1.5" rx="0.3"/>
  <rect class="fill" x="8.5" y="7.5" width="1.5" height="1.5" rx="0.3"/>
  <rect class="fill" x="10.5" y="7.5" width="1.5" height="1.5" rx="0.3"/>
  <rect class="fill" x="12.5" y="7.5" width="1.5" height="1.5" rx="0.3"/>

  <!-- Row 3 - Space bar -->
  <rect class="fill" x="2.5" y="9.5" width="1.5" height="1.5" rx="0.3"/>
  <rect class="fill" x="4.5" y="9.5" width="7" height="1.5" rx="0.3"/>
  <rect class="fill" x="12.5" y="9.5" width="1.5" height="1.5" rx="0.3"/>
</svg>
