<?xml version="1.0" encoding="UTF-8"?>
<svg width="128" height="128" viewBox="0 0 128 128" xmlns="http://www.w3.org/2000/svg">
  <!-- Keyboard body -->
  <rect x="8" y="32" width="112" height="72" rx="8" fill="#3d3846"/>
  <rect x="12" y="36" width="104" height="64" rx="6" fill="#241f31"/>

  <!-- Key rows -->
  <!-- Row 1 -->
  <rect x="18" y="42" width="10" height="10" rx="2" fill="#5e5c64"/>
  <rect x="30" y="42" width="10" height="10" rx="2" fill="#5e5c64"/>
  <rect x="42" y="42" width="10" height="10" rx="2" fill="#5e5c64"/>
  <rect x="54" y="42" width="10" height="10" rx="2" fill="#5e5c64"/>
  <rect x="66" y="42" width="10" height="10" rx="2" fill="#5e5c64"/>
  <rect x="78" y="42" width="10" height="10" rx="2" fill="#5e5c64"/>
  <rect x="90" y="42" width="18" height="10" rx="2" fill="#5e5c64"/>

  <!-- Row 2 -->
  <rect x="18" y="54" width="14" height="10" rx="2" fill="#5e5c64"/>
  <rect x="34" y="54" width="10" height="10" rx="2" fill="#5e5c64"/>
  <rect x="46" y="54" width="10" height="10" rx="2" fill="#5e5c64"/>
  <rect x="58" y="54" width="10" height="10" rx="2" fill="#5e5c64"/>
  <rect x="70" y="54" width="10" height="10" rx="2" fill="#5e5c64"/>
  <rect x="82" y="54" width="10" height="10" rx="2" fill="#5e5c64"/>
  <rect x="94" y="54" width="14" height="10" rx="2" fill="#5e5c64"/>

  <!-- Row 3 - highlighted Super key -->
  <rect x="18" y="66" width="16" height="10" rx="2" fill="#5e5c64"/>
  <rect x="36" y="66" width="10" height="10" rx="2" fill="#1c71d8"/>
  <rect x="48" y="66" width="10" height="10" rx="2" fill="#5e5c64"/>
  <rect x="60" y="66" width="10" height="10" rx="2" fill="#5e5c64"/>
  <rect x="72" y="66" width="10" height="10" rx="2" fill="#5e5c64"/>
  <rect x="84" y="66" width="10" height="10" rx="2" fill="#5e5c64"/>
  <rect x="96" y="66" width="12" height="10" rx="2" fill="#5e5c64"/>

  <!-- Row 4 - Space bar -->
  <rect x="18" y="78" width="14" height="10" rx="2" fill="#5e5c64"/>
  <rect x="34" y="78" width="10" height="10" rx="2" fill="#5e5c64"/>
  <rect x="46" y="78" width="36" height="10" rx="2" fill="#5e5c64"/>
  <rect x="84" y="78" width="10" height="10" rx="2" fill="#5e5c64"/>
  <rect x="96" y="78" width="12" height="10" rx="2" fill="#5e5c64"/>

  <!-- Accent glow on Super key -->
  <rect x="36" y="66" width="10" height="10" rx="2" fill="#62a0ea" opacity="0.3"/>
</svg>
